# xmcd CD database file
# Copyright (C) 1993-1998 Ti Kan
# 
# Track frame offsets:
#     182
#     23842
#     44867
#     59870
#     79932
#     96620
#     107652
#     127395
#     140887
#     155332
#     168032
#     183770
#     200927
#     218365
# 
# Disc length: 3153 seconds
# 
# Revision: 1
# Processed by: cddbd v1.4b41PL1 Copyright (c) Steve Scherf et al.
# Submitted via: DiscPlay 4.0.4
# 
DISCID=d90c4f0e
DTITLE=DJ Red Alert - Kool DJ Red Alert Presents
DYEAR=1900
DGENRE=
TTITLE0=Check Me Out Baby - King Amper Rock
TTITLE1=I Shot Ya - LL Cool Shot
TTITLE2=No More Games (Remix) -Skindeep feat Keith Murray
TTITLE3=No One Else - Total
TTITLE4=California Love - 2Pac
TTITLE5=Red Alert On The Dial - Broadway
TTITLE6=Aint' No Nigga - Jay Z feat Foxy Brown
TTITLE7=Red Alert ia a Bum - MC Barry
TTITLE8=Ain't Nobody - Faith Evans
TTITLE9=You Can't Be Wasting My Time - Mona Lisa
TTITLE10=Sugar Hill - AZ
TTITLE11=Move It In, Move It Out - Derelect Camp
TTITLE12=Get Money - Junior M.A.F.I.A.
TTITLE13=Jeeps, Lex, Coups, Bimaz and Benz - Lost Boyz
EXTD=
EXTT0=
EXTT1=
EXTT2=
EXTT3=
EXTT4=
EXTT5=
EXTT6=
EXTT7=
EXTT8=
EXTT9=
EXTT10=
EXTT11=
EXTT12=
EXTT13=
PLAYORDER=
